<svg width="157" height="157" viewBox="0 0 157 157" fill="none" xmlns="http://www.w3.org/2000/svg">
<path d="M118.895 86.025L148.02 56.8994C159.939 44.9811 159.939 25.5894 148.018 13.6712L143.287 8.94002C131.368 -2.97976 111.978 -2.97976 100.059 8.93852L70.9332 38.063C64.3605 44.6358 61.4198 53.4837 62.0965 62.0965C53.4845 61.419 44.6362 64.3597 38.0642 70.9336L8.93927 100.059C-2.97976 111.976 -2.97976 131.368 8.93927 143.287L13.6719 148.019C25.5906 159.938 44.9822 159.938 56.9001 148.019L86.025 118.894C92.5993 112.32 95.5392 103.472 94.8621 94.861C103.474 95.5393 112.322 92.5978 118.895 86.025ZM75.7331 108.601L46.6079 137.727C40.3651 143.969 30.2062 143.969 23.9649 137.727L19.2315 132.993C12.9888 126.752 12.9895 116.593 19.2315 110.349L48.3568 81.2251C53.641 75.9405 61.7277 75.1315 67.8741 78.7901L55.8026 90.8634C52.9601 93.7051 52.9601 98.3144 55.8026 101.156C58.6446 103.998 63.2532 103.998 66.0948 101.156L78.1678 89.0838C81.8268 95.2306 81.0181 103.318 75.7331 108.601ZM89.0853 78.1675L101.156 66.0945C103.999 63.2535 103.999 58.6446 101.156 55.8033C98.314 52.9594 93.7055 52.9594 90.8634 55.8018L78.7916 67.8737C75.1326 61.7277 75.9413 53.6403 81.2259 48.3564L110.351 19.2315C116.594 12.988 126.753 12.988 132.995 19.2315L137.728 23.9642C143.971 30.207 143.971 40.3647 137.728 46.6075L108.603 75.7331C103.318 81.0181 95.2313 81.8261 89.0853 78.1675Z" fill="white"/>
</svg>
