<svg width="140" height="78" viewBox="0 0 140 78" fill="none" xmlns="http://www.w3.org/2000/svg">
<g filter="url(#filter0_d_97_14)">
<path d="M48.1426 36.4043C47.2767 35.7207 46.8438 34.9232 46.8438 34.0117V33.7383C46.8438 32.8268 47.2539 31.9609 48.0742 31.1406L47.5957 30.6963C46.7754 31.5166 45.9209 31.9268 45.0322 31.9268H41.7168C40.3268 31.9268 39.1875 32.3711 38.2988 33.2598L37.5811 32.542C38.4925 31.6305 38.9482 30.5026 38.9482 29.1582V24.0996C38.9482 22.7324 38.4925 21.5931 37.5811 20.6816L38.2988 19.998C39.1647 20.8639 40.304 21.2969 41.7168 21.2969H62.7031C64.1159 21.2969 65.2552 20.8639 66.1211 19.998L66.7705 20.6816C65.9046 21.5475 65.4717 22.6868 65.4717 24.0996V38.4209C65.4717 39.1273 65.5628 39.6969 65.7451 40.1299C65.9502 40.54 66.349 40.9046 66.9414 41.2236L66.3945 42.2148C65.9844 42.0098 65.5173 41.9072 64.9932 41.9072C64.4919 41.9072 63.9108 42.1237 63.25 42.5566C57.9635 46.0885 50.444 48.071 40.6914 48.5039V51.7852L41.2383 55.5791C41.2383 56.126 41.1243 56.5475 40.8965 56.8438C40.6686 57.14 40.4066 57.2881 40.1104 57.2881C39.8369 57.2881 39.5863 57.1514 39.3584 56.8779C39.1305 56.6045 39.0166 56.3311 39.0166 56.0576C39.0166 55.807 39.0622 55.4538 39.1533 54.998C39.4268 53.5853 39.5635 52.1497 39.5635 50.6914C39.5635 49.2331 39.4609 48.5039 39.2559 48.5039C34.7897 48.5039 30.0957 48.1963 25.1738 47.5811C24.9688 47.5127 24.8662 48.7318 24.8662 51.2383C24.8662 53.7448 25.0713 56.3311 25.4814 58.9971C25.9144 61.6631 26.1309 63.5202 26.1309 64.5684C26.1309 66.6875 25.4814 67.7471 24.1826 67.7471C23.5674 67.7471 23.0319 67.5078 22.5762 67.0293C22.1432 66.5508 21.9268 65.776 21.9268 64.7051C21.9268 63.6569 22.3027 61.7656 23.0547 59.0312C23.8066 56.3197 24.1826 54.2005 24.1826 52.6738V47.3418C11.1715 44.4251 4.66602 36.5752 4.66602 23.792C4.66602 14.0622 8.67643 7.26042 16.6973 3.38672C21.3229 1.13086 26.974 0.00292969 33.6504 0.00292969C44.4284 0.00292969 52.6999 2.11068 58.4648 6.32617C61.5866 8.60482 63.5804 11.2025 64.4463 14.1191C64.8564 15.4863 65.5856 16.5345 66.6338 17.2637L66.1211 17.9473C65.1868 17.2637 63.9564 16.9219 62.4297 16.9219L48.0059 17.4004C46.5703 17.4915 45.6019 18.0384 45.1006 19.041L43.9727 18.4941C44.1549 18.1068 44.2461 17.6624 44.2461 17.1611C44.2461 16.6598 43.8587 15.8965 43.084 14.8711C42.3092 13.8229 41.2383 13.0368 39.8711 12.5127C38.5267 11.9658 36.738 11.6924 34.5049 11.6924C32.2946 11.6924 30.4945 12.0114 29.1045 12.6494C27.7145 13.2874 26.6094 14.1647 25.7891 15.2812C24.194 17.5371 23.3965 20.5221 23.3965 24.2363C23.3965 27.9505 24.5814 31.0153 26.9512 33.4307C29.3438 35.8232 32.4655 37.0195 36.3164 37.0195C40.1673 37.0195 43.0954 36.7689 45.1006 36.2676C45.4652 36.1764 45.8184 36.1309 46.1602 36.1309C46.502 36.1309 47.026 36.4043 47.7324 36.9512L48.1426 36.4043Z" fill="#D5FF18"/>
<path d="M95.7016 55.4424L96.4193 50.5889C96.4193 47.2393 92.8419 45.5645 85.6869 45.5645C84.4564 45.5645 83.602 45.8493 83.1234 46.4189C82.6449 46.9886 82.4057 47.957 82.4057 49.3242C82.4057 50.6914 82.6107 52.5827 83.0209 54.998C83.4311 57.4362 83.6361 59.2933 83.6361 60.5693C83.6361 61.8682 83.1234 62.5176 82.098 62.5176C81.0727 62.5176 80.56 61.834 80.56 60.4668C80.56 59.1224 80.7195 57.083 81.0385 54.3486C81.3575 51.6143 81.517 49.7572 81.517 48.7773C81.517 46.4531 81.0954 45.291 80.2523 45.291C79.7055 45.291 79.432 45.9404 79.432 47.2393L80.2523 52.9131C80.2523 54.2575 79.7624 54.9297 78.7826 54.9297C77.8256 54.9297 77.3471 54.2461 77.3471 52.8789L78.1332 46.5898L78.099 40.916V4.24121C78.099 2.82845 77.6547 1.68913 76.766 0.823242L77.4496 0.105469C78.3839 1.01693 79.5232 1.47266 80.8676 1.47266H109.1C122.726 1.47266 131.18 5.90462 134.461 14.7686C135.373 17.2751 135.829 19.9525 135.829 22.8008C135.829 25.6263 135.646 28.0645 135.282 30.1152C134.94 32.1432 134.496 33.932 133.949 35.4814C133.402 37.0081 132.627 38.3639 131.624 39.5488C130.645 40.7337 129.653 41.7363 128.651 42.5566C127.671 43.3542 126.418 44.0378 124.891 44.6074C123.364 45.1771 121.952 45.6214 120.653 45.9404C119.354 46.2367 117.725 46.4645 115.765 46.624C112.689 46.8747 109.077 47 104.93 47H99.974C98.06 47 97.1029 48.3672 97.1029 51.1016L97.6498 55.4766C97.6498 56.3424 97.3536 56.7754 96.7611 56.7754C96.0548 56.7754 95.7016 56.3311 95.7016 55.4424ZM115.287 31.9268C115.993 31.0153 116.54 29.8418 116.927 28.4062C117.315 26.9479 117.508 25.2048 117.508 23.1768C117.508 21.126 117.166 19.417 116.483 18.0498C115.799 16.6826 114.888 15.68 113.748 15.042C112.609 14.404 111.344 13.9368 109.954 13.6406C108.565 13.3216 107.106 13.1507 105.579 13.1279C104.053 13.0824 102.629 13.0482 101.307 13.0254C98.0714 12.9798 95.9978 12.5013 95.0863 11.5898L94.4027 12.2734C95.2686 13.1165 95.7016 14.2559 95.7016 15.6914V23.5527C95.7016 28.7936 95.7243 32.7129 95.7699 35.3105H103.529C107.425 35.3105 110.182 34.9688 111.8 34.2852C113.441 33.6016 114.603 32.8154 115.287 31.9268ZM97.8891 67.542C97.8891 68.5902 97.5017 69.1143 96.727 69.1143C95.975 69.1143 95.599 68.6813 95.599 67.8154C95.599 66.9723 95.6446 66.2318 95.7357 65.5938C95.8497 64.9557 96.032 64.1354 96.2826 63.1328C96.5333 62.153 96.6814 61.5378 96.727 61.2871C96.7953 61.5833 96.9206 62.0732 97.1029 62.7568C97.2852 63.4632 97.4219 64.0101 97.5131 64.3975C97.7637 65.4684 97.8891 66.5166 97.8891 67.542Z" fill="#DCDCDC"/>
</g>
<defs>
<filter id="filter0_d_97_14" x="0.666016" y="0.00292969" width="139.163" height="77.1113" filterUnits="userSpaceOnUse" color-interpolation-filters="sRGB">
<feFlood flood-opacity="0" result="BackgroundImageFix"/>
<feColorMatrix in="SourceAlpha" type="matrix" values="0 0 0 0 0 0 0 0 0 0 0 0 0 0 0 0 0 0 127 0" result="hardAlpha"/>
<feOffset dy="4"/>
<feGaussianBlur stdDeviation="2"/>
<feComposite in2="hardAlpha" operator="out"/>
<feColorMatrix type="matrix" values="0 0 0 0 0.363851 0 0 0 0 0.363851 0 0 0 0 0.363851 0 0 0 0.25 0"/>
<feBlend mode="normal" in2="BackgroundImageFix" result="effect1_dropShadow_97_14"/>
<feBlend mode="normal" in="SourceGraphic" in2="effect1_dropShadow_97_14" result="shape"/>
</filter>
</defs>
</svg>
